<?xml version="1.0" encoding="iso-8859-1"?>
<!-- Generator: Adobe Illustrator 16.0.0, SVG Export Plug-In . SVG Version: 6.00 Build 0)  -->
<!DOCTYPE svg PUBLIC "-//W3C//DTD SVG 1.1//EN" "http://www.w3.org/Graphics/SVG/1.1/DTD/svg11.dtd">
<svg version="1.1" id="Capa_1" xmlns="http://www.w3.org/2000/svg" xmlns:xlink="http://www.w3.org/1999/xlink" x="0px" y="0px"
	 width="45.938px" height="45.938px" viewBox="0 0 45.938 45.938" style="enable-background:new 0 0 45.938 45.938;"
	 xml:space="preserve">
<g>
	<path d="M40.899,0H5.013C3.087,0,1.532,1.544,1.532,3.472c0,1.927,1.558,3.471,3.495,3.471v32.448c0,3.594,2.911,6.547,6.506,6.547
		h22.848c3.595,0,6.554-2.953,6.554-6.547V6.942c1.867,0,3.471-1.544,3.471-3.471C44.405,1.544,42.826,0,40.899,0z M36.92,39.391
		c0,1.396-1.146,2.535-2.54,2.535H11.533c-1.396,0-2.563-1.139-2.563-2.535v-4.177h9.002c1.102,0,1.994-0.905,1.994-2.006
		s-0.893-2.006-1.994-2.006H8.97v-4.981h9.002c1.102,0,1.994-0.871,1.994-1.972s-0.893-1.972-1.994-1.972H8.97v-4.981h9.002
		c1.102,0,1.994-0.905,1.994-2.006s-0.893-2.006-1.994-2.006H8.97V6.918h27.95V39.391z"/>
</g>
<g>
</g>
<g>
</g>
<g>
</g>
<g>
</g>
<g>
</g>
<g>
</g>
<g>
</g>
<g>
</g>
<g>
</g>
<g>
</g>
<g>
</g>
<g>
</g>
<g>
</g>
<g>
</g>
<g>
</g>
</svg>
