<?xml version="1.0" encoding="iso-8859-1"?>
<!-- Generator: Adobe Illustrator 19.0.0, SVG Export Plug-In . SVG Version: 6.00 Build 0)  -->
<svg version="1.1" id="Layer_1" xmlns="http://www.w3.org/2000/svg" xmlns:xlink="http://www.w3.org/1999/xlink" x="0px" y="0px"
	 viewBox="0 0 512 512" style="enable-background:new 0 0 512 512;" xml:space="preserve">
<g>
	<g>
		<path d="M503.467,0H384c-81.664,0-136.533,54.869-136.533,136.533v238.933c0,72.576-46.891,119.467-119.467,119.467H17.067V384
			c0-4.471,0.179-8.806,0.478-13.056l104.422,104.422c1.664,1.664,3.849,2.5,6.033,2.5s4.369-0.836,6.033-2.5
			c3.337-3.337,3.337-8.73,0-12.066L20.557,349.824c4.471-21.086,13.278-38.613,26.112-52.156l143.565,143.565
			c1.664,1.664,3.849,2.5,6.033,2.5c2.185,0,4.369-0.836,6.033-2.5c3.337-3.337,3.337-8.73,0-12.066L59.546,286.404
			c13.636-9.933,30.302-16.7,49.903-19.823l106.385,106.385c1.664,1.664,3.849,2.5,6.033,2.5c2.185,0,4.369-0.836,6.033-2.5
			c3.336-3.337,3.336-8.73,0-12.066l-96.188-96.188c1.621-0.043,3.174-0.179,4.821-0.179h85.333c4.719,0,8.533-3.823,8.533-8.533
			s-3.814-8.533-8.533-8.533h-85.333c-73.105,0-120.9,37.419-133.248,101.7c-0.393,0.939-0.58,1.946-0.623,2.944
			C0.939,362.138,0,372.745,0,384v119.467C0,508.177,3.814,512,8.533,512H128c81.664,0,136.533-54.869,136.533-136.533V136.533
			c0-72.576,46.891-119.467,119.467-119.467h110.933V128c0,4.437-0.179,8.764-0.538,12.996L390.033,36.634
			c-3.336-3.337-8.73-3.337-12.066,0c-3.336,3.337-3.336,8.73,0,12.066l113.084,113.084c-4.779,20.292-13.952,37.598-26.897,51.234
			L321.766,70.758c-3.337-3.319-8.73-3.328-12.066,0.009c-3.336,3.336-3.336,8.738,0,12.075l141.653,141.517
			c-15.445,11.554-34.551,19.046-56.593,21.803l-98.594-98.594c-3.337-3.337-8.73-3.337-12.066,0s-3.337,8.73,0,12.066
			l87.834,87.834h-81.801c-4.719,0-8.533,3.823-8.533,8.533s3.814,8.533,8.533,8.533h85.333C457.131,264.533,512,209.664,512,128
			V8.533C512,3.823,508.186,0,503.467,0z"/>
	</g>
</g>
<g>
</g>
<g>
</g>
<g>
</g>
<g>
</g>
<g>
</g>
<g>
</g>
<g>
</g>
<g>
</g>
<g>
</g>
<g>
</g>
<g>
</g>
<g>
</g>
<g>
</g>
<g>
</g>
<g>
</g>
</svg>
