<?xml version="1.0" encoding="iso-8859-1"?>
<!-- Generator: Adobe Illustrator 18.0.0, SVG Export Plug-In . SVG Version: 6.00 Build 0)  -->
<!DOCTYPE svg PUBLIC "-//W3C//DTD SVG 1.1//EN" "http://www.w3.org/Graphics/SVG/1.1/DTD/svg11.dtd">
<svg version="1.1" id="Capa_1" xmlns="http://www.w3.org/2000/svg" xmlns:xlink="http://www.w3.org/1999/xlink" x="0px" y="0px"
	 viewBox="0 0 476 476" style="enable-background:new 0 0 476 476;" xml:space="preserve">
<g>
	<path d="M310.938,161.996c0-37.319-26.327-58.617-53.817-75.998c27.49-17.381,53.817-38.679,53.817-75.998c0-5.523-4.477-10-10-10
		s-10,4.477-10,10c0,30.481-25.052,47.371-52.938,64.31C210.113,57.371,185.063,40.481,185.063,10c0-5.523-4.477-10-10-10
		s-10,4.477-10,10c0,37.319,26.326,58.617,53.816,75.998c-27.49,17.381-53.816,38.679-53.816,75.998
		c0,37.32,26.327,58.619,53.817,76.001c-27.49,17.382-53.818,38.681-53.817,76.001c0,37.32,26.327,58.62,53.817,76.001
		c-27.49,17.381-53.817,38.681-53.817,76.001c0,5.523,4.477,10,10,10s10-4.477,10-10c0-30.483,25.051-47.374,52.938-64.313
		c27.886,16.939,52.938,33.83,52.938,64.313c0,5.523,4.477,10,10,10s10-4.477,10-10c0-37.32-26.327-58.62-53.817-76.001
		c27.49-17.382,53.817-38.681,53.817-76.001c0-37.32-26.327-58.619-53.817-76.001C284.611,220.615,310.938,199.316,310.938,161.996z
		 M290.938,313.998c0,30.483-25.051,47.374-52.938,64.313c-27.886-16.939-52.938-33.83-52.938-64.313
		c0-30.483,25.051-47.373,52.937-64.313C265.886,266.625,290.938,283.515,290.938,313.998z M238,226.309
		c-27.886-16.94-52.937-33.83-52.937-64.313c0-30.481,25.051-47.371,52.937-64.31c27.887,16.939,52.938,33.829,52.938,64.31
		C290.938,192.479,265.886,209.369,238,226.309z"/>
	<path d="M205.705,152.927c1.55,0,3.124-0.362,4.595-1.125l38.666-20.049c4.903-2.542,6.817-8.578,4.274-13.48
		c-2.542-4.904-8.577-6.816-13.48-4.274l-38.666,20.049c-4.903,2.542-6.817,8.578-4.274,13.48
		C198.599,150.96,202.089,152.927,205.705,152.927z"/>
	<path d="M282.403,170.707c-2.542-4.903-8.577-6.816-13.48-4.274L221.928,190.8c-4.903,2.542-6.817,8.578-4.274,13.48
		c1.779,3.432,5.27,5.399,8.886,5.399c1.55,0,3.124-0.362,4.595-1.125l46.995-24.368
		C283.032,181.645,284.946,175.609,282.403,170.707z"/>
	<path d="M278.469,138.969c-2.542-4.903-8.578-6.816-13.48-4.274l-64.125,33.25c-4.903,2.542-6.817,8.578-4.274,13.48
		c1.779,3.432,5.27,5.399,8.886,5.399c1.55,0,3.124-0.362,4.595-1.125l64.125-33.25
		C279.098,149.907,281.012,143.872,278.469,138.969z"/>
	<path d="M201.094,285.21c-4.903,2.542-6.817,8.578-4.274,13.48c1.779,3.432,5.27,5.399,8.886,5.399c1.55,0,3.124-0.362,4.595-1.125
		l38.666-20.049c4.903-2.542,6.817-8.578,4.274-13.48c-2.542-4.903-8.579-6.817-13.48-4.274L201.094,285.21z"/>
	<path d="M268.923,317.595l-46.995,24.368c-4.903,2.542-6.817,8.578-4.274,13.48c1.779,3.432,5.27,5.399,8.886,5.399
		c1.55,0,3.124-0.362,4.595-1.125l46.995-24.368c4.903-2.542,6.817-8.578,4.274-13.48
		C279.861,316.965,273.826,315.053,268.923,317.595z"/>
	<path d="M196.589,332.587c1.779,3.432,5.27,5.399,8.886,5.399c1.55,0,3.124-0.362,4.595-1.125l64.125-33.25
		c4.903-2.542,6.817-8.578,4.274-13.48c-2.542-4.904-8.578-6.816-13.48-4.274l-64.125,33.25
		C195.961,321.649,194.047,327.685,196.589,332.587z"/>
</g>
<g>
</g>
<g>
</g>
<g>
</g>
<g>
</g>
<g>
</g>
<g>
</g>
<g>
</g>
<g>
</g>
<g>
</g>
<g>
</g>
<g>
</g>
<g>
</g>
<g>
</g>
<g>
</g>
<g>
</g>
</svg>
