<?xml version="1.0" encoding="iso-8859-1"?>
<!-- Generator: Adobe Illustrator 19.0.0, SVG Export Plug-In . SVG Version: 6.00 Build 0)  -->
<svg version="1.1" id="Layer_1" xmlns="http://www.w3.org/2000/svg" xmlns:xlink="http://www.w3.org/1999/xlink" x="0px" y="0px"
	 viewBox="0 0 490.95 490.95" style="enable-background:new 0 0 490.95 490.95;" xml:space="preserve">
<g>
	<g>
		<path d="M484.725,155.477c-8.3-8.3-20.8-8.3-29.1,0l-74.9,74.9c-32.3,33.3-86.3,33.3-119.6,0c-33.3-32.3-33.3-86.3,0-119.6
			l74.9-74.9c8.3-8.3,8.3-20.8,0-29.1s-20.8-8.3-29.1,0l-74.9,74.9c-31.5,31.5-42.7,76-33.6,116.8c-9.4-2.2-68.7-15.6-117.3,33
			l-74.9,74.9c-8.3,8.3-8.3,20.8,0,29.1c8.3,8.3,20.8,8.3,29.1,0l74.9-74.9c46.8-43.1,102.4-20.7,120.7,0
			c30.7,34.8,33.3,86.3,0,119.6l-74.9,74.9c-8.3,8.3-8.5,21,0,29.1c12.1,11.6,25,4.2,27,0l74.9-74.9c31.5-31.5,42.7-76,33.6-116.8
			c9.5,2.2,69.7,15.5,118.3-33.1l74.9-74.9C493.025,176.277,493.025,163.777,484.725,155.477z"/>
		<path d="M215.225,354.177c8.3-8.3,8.3-20.8,0-29.1l-49.9-49.9c-8.3-8.3-20.8-8.3-29.1,0s-8.3,20.8,0,29.1l49.9,49.9
			C198.425,365.277,211.125,359.377,215.225,354.177z"/>
		<path d="M161.125,381.277l-49.9-49.9c-8.3-8.3-20.8-8.3-29.1,0s-8.3,20.8,0,29.1l48.9,48.9c4.2,4.2,14.1,10.9,30.2,1
			C169.525,402.077,169.525,389.577,161.125,381.277z"/>
		<path d="M330.725,110.777l49.9,49.9c12.9,11.8,25,4.2,29.1,0c8.3-8.3,8.3-20.8,0-29.1l-49.9-49.9c-8.3-8.3-20.8-8.3-29.1,0
			S322.425,102.477,330.725,110.777z"/>
		<path d="M275.625,135.777c-8.3,8.3-8.3,20.8,0,29.1l49.9,49.9c12.4,11.5,25,4.2,29.1,0c8.3-8.3,8.3-20.8,0-29.1l-49.9-49.9
			C296.425,127.377,283.925,127.377,275.625,135.777z"/>
	</g>
</g>
<g>
</g>
<g>
</g>
<g>
</g>
<g>
</g>
<g>
</g>
<g>
</g>
<g>
</g>
<g>
</g>
<g>
</g>
<g>
</g>
<g>
</g>
<g>
</g>
<g>
</g>
<g>
</g>
<g>
</g>
</svg>
