<?xml version="1.0" encoding="iso-8859-1"?>
<!-- Generator: Adobe Illustrator 19.0.0, SVG Export Plug-In . SVG Version: 6.00 Build 0)  -->
<svg version="1.1" id="Capa_1" xmlns="http://www.w3.org/2000/svg" xmlns:xlink="http://www.w3.org/1999/xlink" x="0px" y="0px"
	 viewBox="0 0 511.999 511.999" style="enable-background:new 0 0 511.999 511.999;" xml:space="preserve">
<g>
	<g>
		<path d="M416.992,95.018c-46.76-46.761-122.848-46.761-169.608,0c-46.761,46.761-46.761,122.847,0,169.609
			c23.38,23.381,54.091,35.071,84.803,35.071c30.711,0,61.424-11.69,84.804-35.071C463.754,217.865,463.754,141.78,416.992,95.018z
			 M395.791,243.426c-35.072,35.071-92.135,35.071-127.206,0c-35.072-35.071-35.072-92.136-0.001-127.207
			c17.538-17.537,40.567-26.303,63.604-26.303c23.031,0,46.07,8.769,63.604,26.303C430.862,151.289,430.862,208.354,395.791,243.426
			z"/>
	</g>
</g>
<g>
	<g>
		<path d="M459.393,52.617c-70.142-70.142-184.271-70.142-254.412,0c-33.929,33.928-52.614,79.104-52.614,127.206
			c0,43.057,14.981,83.764,42.457,116.162l-21.645,21.645l-10.601-10.601c-2.811-2.811-6.624-4.391-10.6-4.391
			s-7.789,1.58-10.6,4.391L13.172,435.234C4.677,443.728,0,455.022,0,467.036c0,12.013,4.678,23.308,13.172,31.803
			c8.768,8.767,20.284,13.151,31.801,13.151s23.034-4.383,31.802-13.151l128.206-128.206c5.855-5.855,5.855-15.346,0-21.201
			L194.38,338.83l21.647-21.647c33.409,28.295,74.782,42.452,116.161,42.452c46.068,0,92.135-17.535,127.206-52.606
			C529.535,236.887,529.535,122.759,459.393,52.617z M55.575,477.636c-5.845,5.846-15.355,5.846-21.201,0
			c-5.847-5.844-5.847-15.355-0.001-21.201l75.203-75.203l21.202,21.201L55.575,477.636z M151.978,381.232l-21.202-21.201
			l21.203-21.201l21.201,21.201L151.978,381.232z M438.193,285.827c-58.453,58.451-153.559,58.451-212.011,0
			c-28.266-28.266-43.832-65.912-43.832-106.005c0-40.093,15.566-77.74,43.832-106.005c29.226-29.225,67.615-43.838,106.005-43.838
			s76.779,14.613,106.005,43.838C496.644,132.268,496.644,227.376,438.193,285.827z"/>
	</g>
</g>
<g>
</g>
<g>
</g>
<g>
</g>
<g>
</g>
<g>
</g>
<g>
</g>
<g>
</g>
<g>
</g>
<g>
</g>
<g>
</g>
<g>
</g>
<g>
</g>
<g>
</g>
<g>
</g>
<g>
</g>
</svg>
