<?xml version="1.0" encoding="iso-8859-1"?>
<!-- Generator: Adobe Illustrator 19.0.0, SVG Export Plug-In . SVG Version: 6.00 Build 0)  -->
<svg version="1.1" id="Capa_1" xmlns="http://www.w3.org/2000/svg" xmlns:xlink="http://www.w3.org/1999/xlink" x="0px" y="0px"
	 viewBox="0 0 511.999 511.999" style="enable-background:new 0 0 511.999 511.999;" xml:space="preserve">
<g>
	<g>
		<path d="M454.056,359.648H255.998h-15.233h-60.94c-25.202,0-45.705-20.503-45.705-45.705c0-25.145,20.41-45.613,45.534-45.705
			l15.654,0.38c4.325,0.949,8.731,1.44,13.14,1.44c15.606,0,31.211-5.941,43.092-17.821l10.772,10.772
			c8.91,8.911,20.613,13.367,32.319,13.365c6.742,0,13.482-1.489,19.692-4.446l12.626,12.627
			c8.909,8.911,20.614,13.365,32.318,13.365c11.705,0,23.409-4.455,32.319-13.365c17.821-17.82,17.821-46.816,0-64.637
			l-12.626-12.626c8.092-16.986,5.124-37.968-8.92-52.012L262.31,47.553c-8.632-8.633-20.11-13.387-32.318-13.387
			c-6.937,0-13.635,1.539-19.712,4.448L176.127,4.462c-5.949-5.95-15.596-5.95-21.545,0L111.49,47.553
			c-2.857,2.857-4.463,6.732-4.463,10.772s1.605,7.915,4.463,10.772l34.152,34.152c-2.909,6.077-4.448,12.775-4.448,19.712
			c0,12.208,4.754,23.687,13.388,32.319l10.772,10.773c-3.943,3.944-7.216,8.304-9.851,12.932
			c-64.876,11.579-112.795,68.15-112.795,134.958c0,75.606,61.51,137.116,137.116,137.116h15.235v30.47h-45.705
			c-8.414,0-15.235,6.821-15.235,15.235s6.821,15.235,15.235,15.235h60.94h91.411h60.94c8.414,0,15.235-6.821,15.235-15.235
			s-6.821-15.235-15.235-15.235H316.94v-32.003c29.804-6.074,53.333-29.604,59.408-59.408h77.708
			c8.414,0,15.235-6.821,15.235-15.235C469.291,366.47,462.47,359.648,454.056,359.648z M229.991,230.692
			c-11.881,11.878-31.212,11.88-43.092,0c-11.879-11.88-11.879-31.211,0-43.092c5.755-5.755,13.407-8.925,21.547-8.925
			c8.139,0,15.791,3.17,21.545,8.925C241.871,199.481,241.871,218.811,229.991,230.692z M370.039,241.463
			c5.941,5.942,5.941,15.608,0,21.547c-5.94,5.939-15.605,5.941-21.546,0l-10.772-10.773l10.773-10.773l10.773-10.773
			L370.039,241.463z M348.494,176.827c2.877,2.877,4.463,6.703,4.463,10.773c0,4.07-1.587,7.895-4.464,10.773l-43.092,43.091
			c-2.877,2.877-6.704,4.462-10.773,4.462s-7.895-1.584-10.772-4.462l-10.772-10.773l64.637-64.637L348.494,176.827z M219.22,69.099
			c2.876-2.877,6.702-4.462,10.771-4.462s7.895,1.584,10.772,4.462l75.411,75.41l-48.889,48.889
			c-2.664-10.023-7.902-19.497-15.748-27.343c-11.51-11.511-26.813-17.849-43.091-17.849c-5.404,0-10.696,0.714-15.782,2.068
			l-16.537-16.537c-2.877-2.877-4.463-6.703-4.463-10.773c0-4.069,1.585-7.895,4.463-10.772L219.22,69.099z M143.808,58.327
			l21.547-21.547l21.547,21.545l-10.773,10.773l-10.773,10.773L143.808,58.327z M195.059,420.589h-15.235
			c-58.804,0-106.646-47.841-106.646-106.646c0-47.295,30.862-87.993,74.438-101.714c0.51,10.16,3.557,20.208,9.113,29.128
			c-30.746,9.805-53.08,38.632-53.08,72.586c0,42.003,34.172,76.176,76.176,76.176h23.434
			C198.055,399.09,195.059,409.493,195.059,420.589z M286.47,481.529h-60.94v-60.94c0-16.801,13.669-30.47,30.47-30.47
			c16.801,0,30.47,13.669,30.47,30.47V481.529z M316.874,417.991c-0.427-10.121-3.339-19.606-8.132-27.872h36.048
			C340.184,403.105,329.869,413.405,316.874,417.991z"/>
	</g>
</g>
<g>
</g>
<g>
</g>
<g>
</g>
<g>
</g>
<g>
</g>
<g>
</g>
<g>
</g>
<g>
</g>
<g>
</g>
<g>
</g>
<g>
</g>
<g>
</g>
<g>
</g>
<g>
</g>
<g>
</g>
</svg>
