<?xml version="1.0" encoding="iso-8859-1"?>
<!-- Generator: Adobe Illustrator 19.0.0, SVG Export Plug-In . SVG Version: 6.00 Build 0)  -->
<svg version="1.1" id="Capa_1" xmlns="http://www.w3.org/2000/svg" xmlns:xlink="http://www.w3.org/1999/xlink" x="0px" y="0px"
	 viewBox="0 0 512 512" style="enable-background:new 0 0 512 512;" xml:space="preserve">
<g>
	<g>
		<path d="M437,362c-15.264,0-29.47,4.594-41.33,12.458l-51.337-51.337C354.823,308.403,361,290.41,361,271
			c0-9.11-1.365-17.906-3.894-26.199l49.632-24.479C417.748,232.976,433.949,241,452,241c33.084,0,60-26.916,60-60s-26.916-60-60-60
			s-60,26.916-60,60c0,4.283,0.46,8.46,1.317,12.491l-49.643,24.485c-13.578-18.559-34.081-31.744-57.674-35.719v-64.156
			c25.849-6.678,45-30.195,45-58.101c0-33.084-26.916-60-60-60c-33.084,0-60,26.916-60,60c0,27.906,19.151,51.424,45,58.101v64.156
			c-26.554,4.474-49.194,20.615-62.451,42.953l-44.577-16.9c0.665-4.008,1.028-8.117,1.028-12.31c0-41.355-33.645-75-75-75
			c-41.355,0-75,33.645-75,75s33.645,75,75,75c26.525,0,49.859-13.853,63.198-34.691l44.572,16.898
			C181.611,258.961,181,264.91,181,271c0,25.805,10.921,49.105,28.379,65.531l-38.715,58.795C164.499,393.181,157.887,392,151,392
			c-33.084,0-60,26.916-60,60s26.916,60,60,60s60-26.916,60-60c0-15.376-5.82-29.416-15.365-40.044l38.698-58.771
			C245.539,358.204,257.948,361,271,361c19.409,0,37.403-6.177,52.12-16.667l51.337,51.337C366.594,407.53,362,421.736,362,437
			c0,41.355,33.645,75,75,75c41.355,0,75-33.645,75-75C512,395.645,478.355,362,437,362z M452,151c16.542,0,30,13.458,30,30
			s-13.458,30-30,30s-30-13.458-30-30S435.458,151,452,151z M75,241c-24.813,0-45-20.187-45-45s20.187-45,45-45s45,20.187,45,45
			S99.813,241,75,241z M151,482c-16.542,0-30-13.458-30-30s13.458-30,30-30c6.168,0,11.906,1.873,16.679,5.078
			c0.009,0.006,0.017,0.013,0.026,0.019c0.02,0.013,0.041,0.024,0.061,0.037C175.745,432.53,181,441.663,181,452
			C181,468.542,167.542,482,151,482z M241,60c0-16.542,13.458-30,30-30s30,13.458,30,30c0,16.541-13.457,29.999-29.999,30H271
			h-0.001C254.457,89.999,241,76.541,241,60z M313.487,313.322c-0.028,0.028-0.059,0.051-0.087,0.078
			c-0.028,0.027-0.051,0.059-0.079,0.087C302.464,324.303,287.5,331,271,331c-12.325,0-23.791-3.74-33.332-10.138
			c-0.003-0.002-0.005-0.004-0.008-0.006c-0.005-0.003-0.01-0.005-0.014-0.008C221.59,310.069,211,291.75,211,271
			c0-33.084,26.916-60,60-60s60,26.916,60,60C331,287.5,324.303,302.464,313.487,313.322z M437,482c-24.813,0-45-20.187-45-45
			s20.187-45,45-45s45,20.187,45,45S461.813,482,437,482z"/>
	</g>
</g>
<g>
</g>
<g>
</g>
<g>
</g>
<g>
</g>
<g>
</g>
<g>
</g>
<g>
</g>
<g>
</g>
<g>
</g>
<g>
</g>
<g>
</g>
<g>
</g>
<g>
</g>
<g>
</g>
<g>
</g>
</svg>
